<svg width="32.000000" height="32.000000" viewBox="0 0 32 32" fill="none" xmlns="http://www.w3.org/2000/svg" xmlns:xlink="http://www.w3.org/1999/xlink">
	<desc>
			Created with Pixso.
	</desc>
	<defs>
		<filter id="filter_1_202_dd" x="0.000000" y="0.000000" width="32.000000" height="32.000000" filterUnits="userSpaceOnUse" color-interpolation-filters="sRGB">
			<feFlood flood-opacity="0" result="BackgroundImageFix"/>
			<feBlend mode="normal" in="SourceGraphic" in2="BackgroundImageFix" result="shape"/>
			<feColorMatrix in="SourceAlpha" type="matrix" values="0 0 0 0 0 0 0 0 0 0 0 0 0 0 0 0 0 0 127 0" result="hardAlpha"/>
			<feOffset dx="0" dy="0"/>
			<feGaussianBlur stdDeviation="0"/>
			<feComposite in2="hardAlpha" operator="arithmetic" k2="-1" k3="1"/>
			<feColorMatrix type="matrix" values="0 0 0 0 0.21176 0 0 0 0 0.21569 0 0 0 0 0.25098 0 0 0 0.2 0"/>
			<feBlend mode="normal" in2="shape" result="effect_innerShadow_1"/>
		</filter>
		<clipPath id="clip1_202">
			<rect id="Button" rx="15.500000" width="31.000000" height="31.000000" transform="translate(0.500000 0.500000)" fill="white" fill-opacity="0"/>
		</clipPath>
	</defs>
	<g filter="url(#filter_1_202_dd)">
		<rect id="Button" rx="15.500000" width="31.000000" height="31.000000" transform="translate(0.500000 0.500000)" fill="#FFFFFF" fill-opacity="0.002000"/>
		<g clip-path="url(#clip1_202)">
			<path id="Vector" d="M12 14L12 12L10 12L10 16.5C10 16.77 9.77 17 9.5 17C9.22 17 9 16.77 9 16.5L9 11L12 11C12 8.59 13.95 7 16 7C18.05 7 20 8.7 20 11L23 11L23 23.5C23 24.32 22.32 25 21.5 25L16.5 25C16.22 25 16 24.77 16 24.5C16 24.22 16.22 24 16.5 24L21.5 24C21.77 24 22 23.77 22 23.5L22 12L20 12L20 14L19 14L19 12L13 12L13 14L12 14ZM16 8C14.44 8 13 9.2 13 11L19 11C19 9.29 17.54 8 16 8Z" fill="#1F2026" fill-opacity="1.000000" fill-rule="nonzero"/>
			<path id="Vector" d="M11.5 18C11.77 18 12 18.22 12 18.5L12 21L14.5 21C14.77 21 15 21.22 15 21.5C15 21.77 14.77 22 14.5 22L12 22L12 24.5C12 24.77 11.77 25 11.5 25C11.22 25 11 24.77 11 24.5L11 22L8.5 22C8.22 22 8 21.77 8 21.5C8 21.22 8.22 21 8.5 21L11 21L11 18.5C11 18.22 11.22 18 11.5 18Z" fill="#1F2026" fill-opacity="1.000000" fill-rule="nonzero"/>
		</g>
	</g>
</svg>
