<svg width="16.000000" height="20.000000" viewBox="0 0 16 20" fill="none" xmlns="http://www.w3.org/2000/svg" xmlns:xlink="http://www.w3.org/1999/xlink">
	<defs/>
	<path id="Vector" d="M5 4.5C5 2.88 6.24 1.5 8 1.5C9.75 1.5 11 2.88 11 4.5L11 5.5L5 5.5L5 4.5ZM3.5 7L3.5 9.5L5 9.5L5 7L11 7L11 9.5L12.5 9.5L12.5 7L14.5 7L14.5 17.75C14.5 18.16 14.16 18.5 13.75 18.5L2.25 18.5C1.83 18.5 1.5 18.16 1.5 17.75L1.5 7L3.5 7ZM3.5 5.5L3.5 4.5C3.5 2.11 5.35 0 8 0C10.64 0 12.5 2.11 12.5 4.5L12.5 5.5L15.25 5.5L16 5.5L16 6.25L16 17.75C16 18.99 14.99 20 13.75 20L2.25 20C1 20 0 18.99 0 17.75L0 6.25L0 5.5L0.75 5.5L3.5 5.5Z" fill="#1F2026" fill-opacity="1.000000" fill-rule="evenodd"/>
</svg>
