<svg width="36.000000" height="36.000000" viewBox="0 0 36 36" fill="none" xmlns="http://www.w3.org/2000/svg" xmlns:xlink="http://www.w3.org/1999/xlink">
	<desc>
			Created with Pixso.
	</desc>
	<defs>
		<linearGradient x1="18.000000" y1="0.000000" x2="18.000000" y2="35.733002" id="paint_linear_1_5311_0" gradientUnits="userSpaceOnUse">
			<stop stop-color="#2AABEE"/>
			<stop offset="1.000000" stop-color="#229ED9"/>
		</linearGradient>
	</defs>
	<path id="Vector" d="M18 0C33 0 36 3 36 18C36 33 33 36 18 36C3 36 0 33 0 18C0 3 3 0 18 0Z" fill="url(#paint_linear_1_5311_0)" fill-opacity="1.000000" fill-rule="nonzero"/>
	<path id="Vector" d="M8.84 17.84C14.09 15.56 17.59 14.05 19.34 13.32C24.33 11.24 25.37 10.88 26.05 10.87C26.2 10.87 26.53 10.9 26.75 11.08C26.93 11.23 26.98 11.43 27 11.57C27.03 11.71 27.06 12.03 27.03 12.28C26.76 15.12 25.59 22.03 24.99 25.22C24.74 26.57 24.25 27.02 23.76 27.06C22.72 27.16 21.93 26.37 20.91 25.71C19.33 24.67 18.43 24.02 16.9 23.01C15.12 21.84 16.27 21.19 17.28 20.14C17.55 19.87 22.15 15.68 22.24 15.3C22.26 15.25 22.27 15.07 22.16 14.98C22.06 14.89 21.9 14.92 21.79 14.94C21.63 14.98 19.1 16.65 14.19 19.96C13.48 20.46 12.83 20.7 12.24 20.68C11.6 20.67 10.36 20.32 9.44 20.02C8.32 19.65 7.42 19.46 7.5 18.84C7.54 18.51 7.99 18.18 8.84 17.84Z" fill="#FFFFFF" fill-opacity="1.000000" fill-rule="nonzero"/>
</svg>
