<svg width="17.698601" height="21.750000" viewBox="0 0 17.6986 21.75" fill="none" xmlns="http://www.w3.org/2000/svg" xmlns:xlink="http://www.w3.org/1999/xlink">
	<desc>
			Created with Pixso.
	</desc>
	<defs/>
	<path id="Vector" d="M13.14 0C13.24 1.26 12.84 2.52 12.04 3.49C11.25 4.47 10.07 5.03 8.82 5.02C8.74 3.79 9.15 2.58 9.95 1.66C10.77 0.72 11.91 0.12 13.14 0ZM17.12 7.42C15.68 8.31 14.79 9.87 14.77 11.57C14.77 13.48 15.92 15.21 17.69 15.96C17.35 17.06 16.84 18.11 16.18 19.05C15.29 20.38 14.35 21.69 12.86 21.71C12.15 21.73 11.67 21.53 11.18 21.31C10.66 21.09 10.12 20.86 9.27 20.86C8.38 20.86 7.81 21.1 7.27 21.33C6.8 21.52 6.34 21.72 5.7 21.74C4.28 21.8 3.2 20.33 2.27 19C0.42 16.29 -1.02 11.38 0.91 8.03C1.82 6.4 3.51 5.36 5.38 5.3C6.18 5.29 6.95 5.6 7.63 5.87C8.15 6.08 8.61 6.26 8.98 6.26C9.31 6.26 9.76 6.09 10.28 5.88C11.1 5.55 12.11 5.15 13.14 5.26C14.73 5.31 16.21 6.11 17.12 7.42Z" fill="#000000" fill-opacity="1.000000" fill-rule="evenodd"/>
</svg>
