<svg width="36.000000" height="36.000000" viewBox="0 0 36 36" fill="none" xmlns="http://www.w3.org/2000/svg" xmlns:xlink="http://www.w3.org/1999/xlink">
	<desc>
			Created with Pixso.
	</desc>
	<defs/>
	<path id="Vector" d="M18 0C33 0 36 3 36 18C36 33 33 36 18 36C3 36 0 33 0 18C0 3 3 0 18 0Z" fill="#FF0000" fill-opacity="1.000000" fill-rule="nonzero"/>
	<path id="Vector" d="M27.37 10.24C27.88 10.37 28.34 10.63 28.71 11C29.08 11.36 29.35 11.82 29.49 12.32C30 14.16 30 18 30 18C30 18 30 21.83 29.49 23.67C29.35 24.17 29.08 24.63 28.71 24.99C28.34 25.36 27.88 25.62 27.37 25.75C25.5 26.25 18 26.25 18 26.25C18 26.25 10.49 26.25 8.62 25.75C8.11 25.62 7.65 25.36 7.28 24.99C6.91 24.63 6.64 24.17 6.5 23.67C6 21.83 6 18 6 18C6 18 6 14.16 6.5 12.32C6.64 11.82 6.91 11.36 7.28 11C7.65 10.63 8.11 10.37 8.62 10.24C10.49 9.75 18 9.75 18 9.75C18 9.75 25.5 9.75 27.37 10.24ZM21.75 18L15.75 21.56L15.75 14.43L21.75 18Z" fill="#FFFFFF" fill-opacity="1.000000" fill-rule="evenodd"/>
</svg>
