<svg width="36.000000" height="36.000000" viewBox="0 0 36 36" fill="none" xmlns="http://www.w3.org/2000/svg" xmlns:xlink="http://www.w3.org/1999/xlink">
	<desc>
			Created with Pixso.
	</desc>
	<defs>
		<linearGradient x1="32.107498" y1="4.241993" x2="3.783003" y2="31.863749" id="paint_linear_1_5304_0" gradientUnits="userSpaceOnUse">
			<stop stop-color="#BA00B2"/>
			<stop offset="0.500000" stop-color="#F40000"/>
			<stop offset="1.000000" stop-color="#FFA800"/>
		</linearGradient>
	</defs>
	<path id="Vector" d="M18 0C33 0 36 3 36 18C36 33 33 36 18 36C3 36 0 33 0 18C0 3 3 0 18 0Z" fill="url(#paint_linear_1_5304_0)" fill-opacity="1.000000" fill-rule="nonzero"/>
	<path id="Vector" d="M18 9.39C20.8 9.39 21.13 9.4 22.24 9.45C23.26 9.49 23.82 9.67 24.19 9.81C24.68 10 25.03 10.23 25.4 10.59C25.76 10.96 25.99 11.31 26.18 11.8C26.32 12.17 26.5 12.73 26.54 13.75C26.59 14.86 26.6 15.19 26.6 18C26.6 20.8 26.59 21.13 26.54 22.24C26.49 23.26 26.32 23.82 26.18 24.19C26.01 24.64 25.74 25.06 25.4 25.4C25.03 25.76 24.68 25.99 24.19 26.18C23.82 26.32 23.26 26.5 22.24 26.54C21.13 26.59 20.8 26.6 18 26.6C15.19 26.6 14.86 26.59 13.75 26.54C12.73 26.49 12.17 26.32 11.8 26.18C11.35 26.01 10.93 25.74 10.59 25.4C10.25 25.06 9.98 24.64 9.81 24.19C9.67 23.82 9.49 23.26 9.45 22.24C9.4 21.13 9.39 20.8 9.39 18C9.39 15.19 9.4 14.86 9.45 13.75C9.49 12.73 9.67 12.17 9.81 11.8C9.98 11.35 10.25 10.93 10.59 10.59C10.93 10.25 11.35 9.98 11.8 9.81C12.17 9.67 12.73 9.49 13.75 9.45C14.86 9.4 15.19 9.39 18 9.39ZM18 7.5C15.14 7.5 14.79 7.51 13.67 7.56C12.55 7.61 11.79 7.79 11.12 8.05C10.42 8.31 9.78 8.72 9.26 9.26C8.72 9.78 8.31 10.42 8.05 11.12C7.79 11.79 7.61 12.55 7.56 13.67C7.51 14.79 7.5 15.14 7.5 18C7.5 20.85 7.51 21.2 7.56 22.32C7.61 23.44 7.79 24.2 8.05 24.87C8.31 25.56 8.67 26.15 9.26 26.73C9.78 27.27 10.42 27.68 11.12 27.94C11.79 28.2 12.55 28.38 13.67 28.43C14.79 28.48 15.14 28.5 18 28.5C20.85 28.5 21.21 28.48 22.32 28.43C23.44 28.38 24.21 28.2 24.87 27.94C25.57 27.68 26.21 27.27 26.73 26.73C27.27 26.21 27.68 25.57 27.94 24.87C28.2 24.21 28.38 23.44 28.43 22.32C28.48 21.2 28.5 20.85 28.5 18C28.5 15.14 28.48 14.79 28.43 13.67C28.38 12.55 28.2 11.78 27.94 11.12C27.68 10.42 27.27 9.78 26.73 9.26C26.21 8.72 25.57 8.31 24.87 8.05C24.21 7.79 23.44 7.61 22.32 7.56C21.2 7.51 20.85 7.5 18 7.5ZM18 12.6C16.57 12.6 15.19 13.17 14.18 14.18C13.17 15.19 12.6 16.56 12.6 17.99C12.6 19.42 13.17 20.8 14.18 21.81C15.19 22.82 16.57 23.39 18 23.39C19.41 23.37 20.77 22.79 21.77 21.78C22.76 20.78 23.32 19.41 23.32 17.99C23.32 16.58 22.76 15.21 21.77 14.2C20.77 13.2 19.41 12.62 18 12.6L18 12.6ZM18 21.49C17.07 21.49 16.18 21.13 15.52 20.47C14.86 19.81 14.5 18.92 14.5 17.99C14.5 17.07 14.86 16.18 15.52 15.52C16.18 14.86 17.07 14.49 18 14.49C18.92 14.49 19.81 14.86 20.47 15.52C21.13 16.18 21.49 17.07 21.49 17.99C21.49 18.92 21.13 19.81 20.47 20.47C19.81 21.13 18.92 21.49 18 21.49ZM24.86 12.39C24.86 12.72 24.73 13.04 24.49 13.28C24.25 13.52 23.93 13.65 23.6 13.65C23.27 13.65 22.95 13.52 22.71 13.28C22.47 13.04 22.34 12.72 22.34 12.39C22.34 12.06 22.47 11.73 22.71 11.5C22.95 11.26 23.27 11.13 23.6 11.13C23.93 11.13 24.25 11.26 24.49 11.5C24.73 11.73 24.86 12.06 24.86 12.39Z" fill="#FFFFFF" fill-opacity="1.000000" fill-rule="evenodd"/>
</svg>
