<svg width="36.000000" height="36.000000" viewBox="0 0 36 36" fill="none" xmlns="http://www.w3.org/2000/svg" xmlns:xlink="http://www.w3.org/1999/xlink">
	<desc>
			Created with Pixso.
	</desc>
	<defs/>
	<path id="Vector" d="M18 0C33 0 36 3 36 18C36 33 33 36 18 36C3 36 0 33 0 18C0 3 3 0 18 0Z" fill="#1877F2" fill-opacity="1.000000" fill-rule="nonzero"/>
	<path id="Vector" d="M24.88 23.2L25.68 18L20.69 18L20.69 14.62C20.69 13.2 21.39 11.81 23.62 11.81L25.89 11.81L25.89 7.38C25.89 7.38 23.83 7.03 21.86 7.03C17.75 7.03 15.07 9.52 15.07 14.03L15.07 18L10.5 18L10.5 23.2L15.07 23.2L15.07 35.96C16.12 36 16.12 36 17.88 36C18.84 36 19.87 36 20.69 35.96L20.69 23.2L24.88 23.2Z" fill="#FFFFFF" fill-opacity="1.000000" fill-rule="nonzero"/>
</svg>
