<svg width="16.004219" height="18.003906" viewBox="0 0 16.0042 18.0039" fill="none" xmlns="http://www.w3.org/2000/svg" xmlns:xlink="http://www.w3.org/1999/xlink">
	<desc>
			Created with Pixso.
	</desc>
	<defs/>
	<path id="Vector" d="M8 0C5.79 0 4 1.79 4 4L4 5C4 7.2 5.79 9 8 9C10.2 9 12 7.2 12 5L12 4C12 1.79 10.2 0 8 0ZM5.5 4C5.5 2.61 6.61 1.5 8 1.5C9.38 1.5 10.5 2.61 10.5 4L10.5 5C10.5 6.38 9.38 7.5 8 7.5C6.61 7.5 5.5 6.38 5.5 5L5.5 4ZM1.5 16.36C1.97 13.25 5.01 11.5 8 11.5C10.98 11.5 14.03 13.25 14.5 16.36C14.5 16.38 14.5 16.39 14.5 16.4C14.49 16.41 14.49 16.42 14.47 16.44C14.44 16.47 14.38 16.5 14.31 16.5L1.68 16.5C1.61 16.5 1.55 16.47 1.52 16.44C1.51 16.42 1.5 16.41 1.5 16.4C1.5 16.39 1.49 16.38 1.5 16.36ZM8 10C4.57 10 0.64 12.04 0.01 16.14C-0.15 17.22 0.75 18 1.68 18L14.31 18C15.24 18 16.14 17.22 15.98 16.14C15.36 12.04 11.43 10 8 10Z" fill="#1F2026" fill-opacity="1.000000" fill-rule="evenodd"/>
</svg>
