<svg width="215.000000" height="32.000000" viewBox="0 0 215 32" fill="none" xmlns="http://www.w3.org/2000/svg" xmlns:xlink="http://www.w3.org/1999/xlink">
	<desc>
			Created with Pixso.
	</desc>
	<defs/>
	<path id="Vector" d="M20.54 11.08C21.03 11.19 21.49 11.28 21.95 11.39C22.44 11.52 22.92 11.67 23.4 11.8C23.47 11.82 23.5 11.85 23.5 11.93C23.5 13.43 23.51 14.94 23.49 16.45C23.47 18.07 22.96 19.53 21.97 20.82C20.88 22.26 19.44 23.18 17.68 23.6C16.99 23.77 16.28 23.82 15.57 23.78C13.89 23.68 12.39 23.09 11.11 21.98C9.79 20.85 8.96 19.42 8.63 17.71C8.53 17.22 8.49 16.73 8.49 16.23C8.49 14.8 8.49 13.38 8.49 11.95C8.49 11.86 8.52 11.82 8.61 11.8C9.53 11.5 10.47 11.27 11.42 11.1C11.42 11.09 11.43 11.1 11.46 11.09C11.46 11.13 11.46 11.17 11.46 11.21C11.46 12.99 11.45 14.79 11.46 16.58C11.47 17.48 11.59 18.37 11.9 19.23C12.14 19.91 12.5 20.51 13.04 21C13.54 21.46 14.13 21.75 14.79 21.89C15.73 22.09 16.66 22.08 17.58 21.79C18.67 21.45 19.42 20.73 19.9 19.71C20.16 19.17 20.31 18.59 20.41 18C20.52 17.35 20.55 16.68 20.55 16.02C20.55 14.42 20.55 12.82 20.55 11.22C20.54 11.18 20.54 11.14 20.54 11.08Z" fill="#FFFFFF" fill-opacity="1.000000" fill-rule="nonzero"/>
	<path id="Vector" d="M17.31 14.4C16.43 14.4 15.55 14.4 14.68 14.4C14.68 12.34 14.68 10.28 14.68 8.23C14.95 8.15 16.79 8.14 17.31 8.23C17.31 10.28 17.31 12.34 17.31 14.4Z" fill="#FFFFFF" fill-opacity="1.000000" fill-rule="nonzero"/>
	<path id="Vector" d="M20.54 11.08C21.03 11.19 21.49 11.28 21.95 11.39C22.44 11.52 22.92 11.67 23.4 11.8C23.47 11.82 23.5 11.85 23.5 11.93C23.5 13.43 23.51 14.94 23.49 16.45C23.47 18.07 22.96 19.53 21.97 20.82C20.88 22.26 19.44 23.18 17.68 23.6C16.99 23.77 16.28 23.82 15.57 23.78C13.89 23.68 12.39 23.09 11.11 21.98C9.79 20.85 8.96 19.42 8.63 17.71C8.53 17.22 8.49 16.73 8.49 16.23C8.49 14.8 8.49 13.38 8.49 11.95C8.49 11.86 8.52 11.82 8.61 11.8C9.53 11.5 10.47 11.27 11.42 11.1C11.42 11.09 11.43 11.1 11.46 11.09C11.46 11.13 11.46 11.17 11.46 11.21C11.46 12.99 11.45 14.79 11.46 16.58C11.47 17.48 11.59 18.37 11.9 19.23C12.14 19.91 12.5 20.51 13.04 21C13.54 21.46 14.13 21.75 14.79 21.89C15.73 22.09 16.66 22.08 17.58 21.79C18.67 21.45 19.42 20.73 19.9 19.71C20.16 19.17 20.31 18.59 20.41 18C20.52 17.35 20.55 16.68 20.55 16.02C20.55 14.42 20.55 12.82 20.55 11.22C20.54 11.18 20.54 11.14 20.54 11.08Z" fill="#FFFFFF" fill-opacity="1.000000" fill-rule="nonzero"/>
	<path id="Vector" d="M17.31 14.4C16.43 14.4 15.55 14.4 14.68 14.4C14.68 12.34 14.68 10.28 14.68 8.23C14.95 8.15 16.79 8.14 17.31 8.23C17.31 10.28 17.31 12.34 17.31 14.4Z" fill="#FFFFFF" fill-opacity="1.000000" fill-rule="nonzero"/>
	<path id="Vector" d="M20.54 11.08C21.03 11.19 21.49 11.28 21.95 11.39C22.44 11.52 22.92 11.67 23.4 11.8C23.47 11.82 23.5 11.85 23.5 11.93C23.5 13.43 23.51 14.94 23.49 16.45C23.47 18.07 22.96 19.53 21.97 20.82C20.88 22.26 19.44 23.18 17.68 23.6C16.99 23.77 16.28 23.82 15.57 23.78C13.89 23.68 12.39 23.09 11.11 21.98C9.79 20.85 8.96 19.42 8.63 17.71C8.53 17.22 8.49 16.73 8.49 16.23C8.49 14.8 8.49 13.38 8.49 11.95C8.49 11.86 8.52 11.82 8.61 11.8C9.53 11.5 10.47 11.27 11.42 11.1C11.42 11.09 11.43 11.1 11.46 11.09C11.46 11.13 11.46 11.17 11.46 11.21C11.46 12.99 11.45 14.79 11.46 16.58C11.47 17.48 11.59 18.37 11.9 19.23C12.14 19.91 12.5 20.51 13.04 21C13.54 21.46 14.13 21.75 14.79 21.89C15.73 22.09 16.66 22.08 17.58 21.79C18.67 21.45 19.42 20.73 19.9 19.71C20.16 19.17 20.31 18.59 20.41 18C20.52 17.35 20.55 16.68 20.55 16.02C20.55 14.42 20.55 12.82 20.55 11.22C20.54 11.18 20.54 11.14 20.54 11.08Z" fill="#FFFFFF" fill-opacity="1.000000" fill-rule="nonzero"/>
	<path id="Vector" d="M17.31 14.4C16.43 14.4 15.55 14.4 14.68 14.4C14.68 12.34 14.68 10.28 14.68 8.23C14.95 8.15 16.79 8.14 17.31 8.23C17.31 10.28 17.31 12.34 17.31 14.4Z" fill="#FFFFFF" fill-opacity="1.000000" fill-rule="nonzero"/>
	<path id="Vector" d="M15.98 0C24.81 0 31.97 7.15 31.97 15.98C31.97 24.81 24.81 31.97 15.98 31.97C7.15 31.97 0 24.81 0 15.98C0 7.15 7.15 0 15.98 0Z" fill="#FFFF00" fill-opacity="1.000000" fill-rule="evenodd"/>
	<path id="Vector" d="M3.75 14.79C3.27 12.11 3.04 10.77 3.38 9.66C3.68 8.68 4.28 7.82 5.1 7.2C6.03 6.5 7.37 6.26 10.05 5.79L18.14 4.36C20.82 3.89 22.16 3.65 23.27 3.99C24.25 4.29 25.11 4.9 25.73 5.72C26.43 6.65 26.67 7.99 27.14 10.66L28.25 16.96C28.72 19.63 28.96 20.97 28.62 22.09C28.32 23.07 27.71 23.93 26.89 24.55C25.96 25.25 24.62 25.48 21.95 25.96L13.86 27.38C11.18 27.86 9.84 28.09 8.72 27.75C7.74 27.45 6.88 26.85 6.27 26.03C5.56 25.1 5.33 23.76 4.86 21.08L3.75 14.79Z" fill="#7000FF" fill-opacity="1.000000" fill-rule="nonzero"/>
	<path id="Vector" d="M20.54 11.08C21.03 11.19 21.49 11.28 21.95 11.39C22.44 11.52 22.92 11.67 23.4 11.8C23.47 11.82 23.5 11.85 23.5 11.93C23.5 13.43 23.51 14.94 23.49 16.45C23.47 18.07 22.96 19.53 21.97 20.82C20.88 22.26 19.44 23.18 17.68 23.6C16.99 23.77 16.28 23.82 15.57 23.78C13.89 23.68 12.39 23.09 11.11 21.98C9.79 20.85 8.96 19.42 8.63 17.71C8.53 17.22 8.49 16.73 8.49 16.23C8.49 14.8 8.49 13.38 8.49 11.95C8.49 11.86 8.52 11.82 8.61 11.8C9.53 11.5 10.47 11.27 11.42 11.1C11.42 11.09 11.43 11.1 11.46 11.09C11.46 11.13 11.46 11.17 11.46 11.21C11.46 12.99 11.45 14.79 11.46 16.58C11.47 17.48 11.59 18.37 11.9 19.23C12.14 19.91 12.5 20.51 13.04 21C13.54 21.46 14.13 21.75 14.79 21.89C15.73 22.09 16.66 22.08 17.58 21.79C18.67 21.45 19.42 20.73 19.9 19.71C20.16 19.17 20.31 18.59 20.41 18C20.52 17.35 20.55 16.68 20.55 16.02C20.55 14.42 20.55 12.82 20.55 11.22C20.54 11.18 20.54 11.14 20.54 11.08Z" fill="#FFFFFF" fill-opacity="1.000000" fill-rule="nonzero"/>
	<path id="Vector" d="M17.31 14.4C16.43 14.4 15.55 14.4 14.68 14.4C14.68 12.34 14.68 10.28 14.68 8.23C14.95 8.15 16.79 8.14 17.31 8.23C17.31 10.28 17.31 12.34 17.31 14.4Z" fill="#FFFFFF" fill-opacity="1.000000" fill-rule="nonzero"/>
	<path id="Vector" d="M136.19 9.43C133.8 9.43 132 10.4 131.1 11.87C130.19 10.4 128.22 9.43 126.16 9.43C122.11 9.43 120.04 11.99 120.04 15.16L120.04 22.78L123.82 22.78L123.82 15.7C123.82 14.19 124.63 12.85 126.45 12.85C128.28 12.85 129.23 14.13 129.23 15.64L129.23 22.78L133.02 22.78L133.02 15.64C133.02 14.12 133.92 12.85 135.73 12.85C137.57 12.85 138.42 14.19 138.42 15.7L138.42 22.78L142.2 22.78L142.2 15.16C142.19 11.99 140.24 9.43 136.19 9.43Z" fill="#7000FF" fill-opacity="1.000000" fill-rule="nonzero"/>
	<path id="Vector" d="M159.05 18.18L159.05 9.68L155.31 9.68L155.34 11.75C154.52 10.54 153.09 9.43 150.55 9.43C146.19 9.43 143.95 12.82 143.95 16.22C143.86 19.66 146.4 23.08 150.37 23.08C152.47 23.08 154.39 22.15 155.31 20.51C155.68 21.6 156.62 22.78 158.57 22.78L160.73 22.78L160.73 19.61L160.12 19.61C159.37 19.61 159.05 19.33 159.05 18.18ZM151.34 19.81C149.19 19.81 147.59 18.33 147.59 16.25C147.59 14.2 149.19 12.74 151.34 12.74C153.56 12.74 155.16 14.2 155.16 16.25C155.16 18.33 153.56 19.81 151.34 19.81Z" fill="#7000FF" fill-opacity="1.000000" fill-rule="nonzero"/>
	<path id="Vector" d="M163.14 14.15L163.14 22.78L166.92 22.78L166.92 16.99C166.92 14.75 168.54 13.31 170.61 13.31L173.08 13.31L173.08 9.41L171.23 9.41C168.95 9.41 167.28 11.36 166.92 12.49L166.92 12.09L166.92 9.68L163.14 9.68L163.14 14.15Z" fill="#7000FF" fill-opacity="1.000000" fill-rule="nonzero"/>
	<path id="Vector" d="M175.32 22.78L179.1 22.78L179.1 16.36L184.97 22.78L189.43 22.78L183.35 16.05L188.97 9.68L184.52 9.68L179.1 15.82L179.1 5.63L175.32 5.63L175.32 22.78Z" fill="#7000FF" fill-opacity="1.000000" fill-rule="nonzero"/>
	<path id="Vector" d="M193.86 17.26C193.86 18.7 194.61 20.15 197.02 20.15C199.24 20.15 199.56 18.82 199.56 18.82L203.71 18.82C203.71 18.82 203.33 23.08 197.02 23.08C192.63 23.08 189.88 20.63 189.88 16.25C189.88 11.86 192.63 9.43 196.98 9.43C201.27 9.43 204.03 11.86 204.03 16.25C204.03 16.73 203.95 17.26 203.95 17.26L193.86 17.26L193.86 17.26ZM193.91 14.95L199.99 14.95C199.99 13.88 199.37 12.37 196.97 12.37C194.61 12.37 193.91 13.89 193.91 14.95Z" fill="#7000FF" fill-opacity="1.000000" fill-rule="nonzero"/>
	<path id="Vector" d="M212.66 19.49C211.36 19.49 210.89 18.91 210.89 17.09L210.89 12.48L214.99 12.48L214.99 9.44L210.89 9.44L210.89 6.83L208.85 6.83L205.21 10.31L205.21 12.48L207.11 12.48L207.11 17.59C207.11 21.26 208.9 22.8 212.66 22.8L215 22.8L215 19.5L212.66 19.5L212.66 19.49Z" fill="#7000FF" fill-opacity="1.000000" fill-rule="nonzero"/>
	<path id="Vector" d="M83.68 16.48C83.68 18.55 82.5 19.51 80.76 19.51C79.02 19.51 77.88 18.57 77.88 16.48L77.88 9.64L74.13 9.64L74.13 16.61C74.13 21.16 77.93 22.93 80.79 22.93C83.65 22.93 87.46 21.15 87.46 16.61L87.46 9.64L83.7 9.64L83.68 16.48Z" fill="#7000FF" fill-opacity="1.000000" fill-rule="nonzero"/>
	<path id="Vector" d="M70.94 12.81L70.94 9.64L58.72 9.64L58.72 12.81L65.96 12.81L58.43 19.52L58.43 22.69L71.41 22.69L71.41 19.52L63.43 19.52L70.94 12.81Z" fill="#7000FF" fill-opacity="1.000000" fill-rule="nonzero"/>
	<path id="Vector" d="M106.28 9.39C103.9 9.39 102.1 10.36 101.21 11.83C100.31 10.36 98.34 9.39 96.29 9.39C92.27 9.39 90.18 11.95 90.18 15.12L90.18 22.69L93.94 22.69L93.94 15.64C93.94 14.13 94.73 12.8 96.56 12.8C96.93 12.78 97.3 12.83 97.65 12.96C98 13.09 98.32 13.3 98.58 13.57C98.84 13.83 99.04 14.15 99.17 14.5C99.3 14.85 99.36 15.22 99.34 15.59L99.34 22.69L103.1 22.69L103.1 15.59C103.1 14.07 103.99 12.8 105.79 12.8C107.6 12.8 108.47 14.13 108.47 15.64L108.47 22.69L112.23 22.69L112.23 15.12C112.23 11.96 110.29 9.4 106.25 9.4L106.28 9.39Z" fill="#7000FF" fill-opacity="1.000000" fill-rule="nonzero"/>
	<path id="Vector" d="M52.19 16.48C52.19 18.55 51.02 19.51 49.29 19.51C47.56 19.51 46.4 18.57 46.4 16.48L46.4 9.64L42.64 9.64L42.64 16.61C42.64 21.16 46.43 22.93 49.3 22.93C52.18 22.93 55.96 21.15 55.96 16.61L55.96 9.64L52.2 9.64L52.19 16.48Z" fill="#7000FF" fill-opacity="1.000000" fill-rule="nonzero"/>
</svg>
