<svg width="9.000000" height="5.333328" viewBox="0 0 9 5.33333" fill="none" xmlns="http://www.w3.org/2000/svg" xmlns:xlink="http://www.w3.org/1999/xlink">
	<desc>
			Created with Pixso.
	</desc>
	<defs/>
	<path id="Vector" d="M4.5 5.33C4.7 5.32 4.89 5.24 5.05 5.08L8.79 1.2C8.92 1.07 9 0.9 9 0.7C9 0.31 8.69 0 8.3 0C8.11 0 7.92 0.07 7.79 0.21L4.5 3.63L1.2 0.21C1.07 0.08 0.89 0 0.69 0C0.3 0 0 0.31 0 0.7C0 0.9 0.07 1.07 0.2 1.2L3.95 5.08C4.11 5.24 4.29 5.33 4.5 5.33Z" fill="#7E818C" fill-opacity="1.000000" fill-rule="nonzero"/>
</svg>
