<svg width="24.000000" height="24.000000" viewBox="0 0 24 24" fill="none" xmlns="http://www.w3.org/2000/svg" xmlns:xlink="http://www.w3.org/1999/xlink">
	<desc>
			Created with Pixso.
	</desc>
	<defs/>
	<path id="Vector" d="M15.5 10.5C15.5 13.26 13.26 15.5 10.5 15.5C7.73 15.5 5.5 13.26 5.5 10.5C5.5 7.73 7.73 5.5 10.5 5.5C13.26 5.5 15.5 7.73 15.5 10.5ZM14.33 15.74C13.26 16.53 11.93 17 10.5 17C6.91 17 4 14.08 4 10.5C4 6.91 6.91 4 10.5 4C14.08 4 17 6.91 17 10.5C17 11.93 16.53 13.26 15.74 14.33L19.7 18.3C20.09 18.69 20.09 19.32 19.7 19.7C19.32 20.09 18.69 20.09 18.3 19.7L14.33 15.74Z" fill="#4D4F59" fill-opacity="1.000000" fill-rule="evenodd"/>
</svg>
