<svg width="24.000000" height="24.000000" viewBox="0 0 24 24" fill="none" xmlns="http://www.w3.org/2000/svg" xmlns:xlink="http://www.w3.org/1999/xlink">
	<desc>
			Created with Pixso.
	</desc>
	<defs/>
	<path id="Vector" d="M7 11C7 8.23 9.23 6 12 6C14.76 6 17 8.23 17 11C17 13.23 15.8 15.24 14.51 16.72C13.87 17.46 13.22 18.05 12.7 18.45C12.45 18.65 12.23 18.8 12.08 18.9C12.05 18.92 12.02 18.94 12 18.95C11.97 18.94 11.94 18.92 11.91 18.9C11.76 18.8 11.54 18.65 11.29 18.45C10.77 18.05 10.12 17.46 9.48 16.72C8.19 15.24 7 13.23 7 11ZM12 5C8.68 5 6 7.68 6 11C6 13.58 7.36 15.81 8.73 17.38C9.41 18.17 10.11 18.8 10.67 19.24C10.94 19.45 11.19 19.63 11.38 19.75C11.48 19.81 11.57 19.86 11.65 19.9C11.69 19.92 11.74 19.94 11.78 19.96C11.82 19.97 11.9 20 12 20C12.09 20 12.17 19.97 12.21 19.96C12.25 19.94 12.3 19.92 12.34 19.9C12.42 19.86 12.51 19.81 12.61 19.75C12.8 19.63 13.05 19.45 13.32 19.24C13.88 18.8 14.58 18.17 15.26 17.38C16.63 15.81 18 13.58 18 11C18 7.68 15.31 5 12 5ZM11 11C11 10.44 11.44 10 12 10C12.55 10 13 10.44 13 11C13 11.55 12.55 12 12 12C11.44 12 11 11.55 11 11ZM12 9C10.89 9 10 9.89 10 11C10 12.1 10.89 13 12 13C13.1 13 14 12.1 14 11C14 9.89 13.1 9 12 9Z" fill="#1F2026" fill-opacity="1.000000" fill-rule="evenodd"/>
</svg>
