<svg width="20.000000" height="17.500031" viewBox="0 0 20 17.5" fill="none" xmlns="http://www.w3.org/2000/svg" xmlns:xlink="http://www.w3.org/1999/xlink">
	<desc>
			Created with Pixso.
	</desc>
	<defs/>
	<path id="Vector" d="M5.5 1.5C3.26 1.5 1.5 3.3 1.5 5.5C1.5 6.42 1.87 7.44 2.54 8.51C3.21 9.57 4.14 10.62 5.15 11.62C6.55 13 8.03 14.18 9.17 15.1C9.47 15.34 9.75 15.56 10 15.76C10.24 15.56 10.52 15.34 10.82 15.1C11.96 14.18 13.44 13 14.84 11.62C15.85 10.62 16.78 9.57 17.45 8.51C18.12 7.44 18.5 6.42 18.5 5.5C18.5 3.3 16.73 1.5 14.5 1.5C12.34 1.5 11.07 3.2 10.72 3.74C10.38 4.27 9.61 4.27 9.27 3.74C8.92 3.2 7.65 1.5 5.5 1.5ZM0 5.5C0 2.49 2.43 0 5.5 0C7.73 0 9.22 1.3 10 2.21C10.77 1.3 12.26 0 14.5 0C17.57 0 20 2.49 20 5.5C20 6.82 19.47 8.11 18.72 9.3C17.96 10.5 16.95 11.65 15.9 12.69C14.44 14.12 12.8 15.43 11.65 16.36C11.16 16.75 10.76 17.07 10.49 17.31C10.21 17.56 9.78 17.56 9.5 17.31C9.23 17.07 8.83 16.75 8.34 16.36C7.19 15.43 5.55 14.12 4.09 12.69C3.04 11.65 2.03 10.5 1.27 9.3C0.52 8.11 0 6.82 0 5.5Z" fill="#1F2026" fill-opacity="1.000000" fill-rule="evenodd"/>
</svg>
